<?xml version="1.0" encoding="UTF-8" standalone="no"?>
<!-- Created with Inkscape (http://www.inkscape.org/) -->

<svg
   id="svg2"
   version="1.1"
   inkscape:version="1.3 (0e150ed, 2023-07-21)"
   xml:space="preserve"
   width="127.52869"
   height="134.3783"
   viewBox="-2 0 127.52869 134.37829"
   sodipodi:docname="logo.svg"
   xmlns:inkscape="http://www.inkscape.org/namespaces/inkscape"
   xmlns:sodipodi="http://sodipodi.sourceforge.net/DTD/sodipodi-0.dtd"
   xmlns="http://www.w3.org/2000/svg"
   xmlns:svg="http://www.w3.org/2000/svg"
   xmlns:rdf="http://www.w3.org/1999/02/22-rdf-syntax-ns#"
   xmlns:cc="http://creativecommons.org/ns#"
   xmlns:dc="http://purl.org/dc/elements/1.1/"><metadata
     id="metadata8"><rdf:RDF><cc:Work
         rdf:about=""><dc:format>image/svg+xml</dc:format><dc:type
           rdf:resource="http://purl.org/dc/dcmitype/StillImage" /></cc:Work></rdf:RDF></metadata><defs
     id="defs6"><clipPath
       clipPathUnits="userSpaceOnUse"
       id="clipPath18"><path
         d="M 0,215.438 H 215.438 V 0 H 0 Z"
         id="path20"
         inkscape:connector-curvature="0" /></clipPath></defs><sodipodi:namedview
     pagecolor="#ffffff"
     bordercolor="#666666"
     borderopacity="1"
     objecttolerance="10"
     gridtolerance="10"
     guidetolerance="10"
     inkscape:pageopacity="0"
     inkscape:pageshadow="2"
     inkscape:window-width="1440"
     inkscape:window-height="847"
     id="namedview4"
     showgrid="false"
     inkscape:zoom="2.502806"
     inkscape:cx="92.695958"
     inkscape:cy="116.2695"
     inkscape:window-x="0"
     inkscape:window-y="25"
     inkscape:window-maximized="1"
     inkscape:current-layer="pin"
     inkscape:snap-page="true"
     fit-margin-top="0"
     fit-margin-left="0"
     fit-margin-right="0"
     fit-margin-bottom="0"
     inkscape:showpageshadow="2"
     inkscape:pagecheckerboard="0"
     inkscape:deskcolor="#d1d1d1"
     showguides="true" /><g
     id="g10"
     inkscape:groupmode="layer"
     inkscape:label="Sticker_Grey_7X7cm"
     transform="matrix(1.25,0,0,-1.25,-72.884276,235.79541)"><g
       id="g96"
       transform="translate(107.2345,129.2443)"
       style="fill:#c02b24;fill-opacity:1;fill-rule:nonzero;stroke:none"><path
         d="m 0,0 h -0.214 c -5.557,-0.106 -10.81,-4.675 -14.448,-10.837 -6.287,-10.652 0.405,-18.592 1.718,-23.692 1.313,-5.1 -2.825,-10.007 -6.264,-10.731 -3.536,-0.743 -6.87,0.744 -10.709,7.756 -3.839,7.012 -2.324,17.424 0.404,24.224 2.638,6.576 11.416,13.599 11.012,16.999 -0.404,3.399 -4.849,5.843 -6.163,16.361 -1.313,10.518 3.738,19.336 3.738,19.336 0,0 7.987,3.568 20.107,3.568"
         id="path98"
         inkscape:connector-curvature="0"
         style="fill:#c02b24;fill-opacity:1" /></g><g
       id="g100"
       transform="translate(107.0496,129.2443)"
       style="fill:#d94b20;fill-opacity:1;fill-rule:nonzero;stroke:none"><path
         d="m 0,0 h 0.214 c 5.557,-0.106 10.81,-4.675 14.448,-10.837 6.287,-10.652 -0.405,-18.592 -1.718,-23.692 -1.313,-5.1 2.825,-10.007 6.264,-10.731 3.536,-0.743 6.87,0.744 10.709,7.756 3.839,7.012 2.324,17.424 -0.404,24.224 -2.638,6.576 -11.416,13.599 -11.012,16.999 0.404,3.399 4.849,5.843 6.163,16.361 1.313,10.518 -3.738,19.336 -3.738,19.336 0,0 -7.987,3.568 -20.107,3.568"
         id="path102"
         inkscape:connector-curvature="0"
         style="fill:#d94b20;fill-opacity:1" /></g><g
       id="g104"
       transform="translate(108.335,124.1724)"
       style="fill:#d94b20;fill-opacity:1;fill-rule:nonzero;stroke:none"><path
         d="m 0,0 v 64.459 c -5.858,0.089 -11.828,-1.017 -16.489,-4.235 -9.626,-6.647 -14.247,-17.791 -15.21,-25.025 -0.962,-7.233 3.466,-16.617 5.969,-22.091 4.152,-9.083 -5.443,-11.566 -11.662,-14.615 -6.74,-3.304 -12.35,-10.509 -13.868,-17.871 -1.3,-6.312 0.86,-13.59 6.293,-17.055 1.936,-1.235 4.612,-1.888 6.445,-0.505 0.905,0.682 1.438,1.747 1.814,2.816 0.73,2.074 0.98,4.316 0.725,6.501 -0.774,6.62 -2.333,11.24 2.465,16.691 7.496,8.514 20.51,10.664 31.32,10.927 V -0.065 C -1.47,-0.031 -0.736,-0.013 0,0"
         id="path106"
         inkscape:connector-curvature="0"
         style="fill:#d94b20;fill-opacity:1" /></g><g
       id="g108"
       transform="translate(107.1028,124.1724)"
       style="fill:#f36517;fill-opacity:1;fill-rule:nonzero;stroke:none"><path
         d="M 0,0 V 64.459 C 5.858,64.548 11.828,63.442 16.489,60.224 26.115,53.577 30.736,42.433 31.699,35.199 32.661,27.966 28.233,18.582 25.73,13.108 21.578,4.025 31.173,1.542 37.392,-1.507 c 6.74,-3.304 12.35,-10.509 13.868,-17.871 1.3,-6.312 -0.86,-13.59 -6.293,-17.055 -1.936,-1.235 -4.612,-1.888 -6.445,-0.505 -0.905,0.682 -1.438,1.747 -1.814,2.816 -0.73,2.074 -0.98,4.316 -0.725,6.501 0.774,6.62 2.333,11.24 -2.465,16.691 -7.496,8.514 -20.51,10.664 -31.32,10.927 V -0.065 C 1.47,-0.031 0.736,-0.013 0,0"
         id="path110"
         inkscape:connector-curvature="0"
         style="fill:#f36517;fill-opacity:1" /></g><g
       id="g112"
       transform="translate(97.0504,126.2926)"
       style="fill:#f36517;fill-opacity:1;fill-rule:nonzero;stroke:none"><path
         d="m 0,0 c 0,0 8.109,-3.033 5.985,-12.231 -2.124,-9.198 -5.798,-18.953 -4.715,-23.65 1.083,-4.697 3.734,-9.603 9.258,-9.261 l 0.453,0.001 c 5.523,-0.321 8.193,4.595 9.294,9.296 1.1,4.7 -2.536,14.442 -4.625,23.632 -2.089,9.191 6.032,12.253 6.032,12.253"
         id="path114"
         inkscape:connector-curvature="0"
         style="fill:#f36517;fill-opacity:1" /></g><g
       id="g116"
       transform="translate(107.1859,126.685)"
       style="fill:#d94b20;fill-opacity:1;fill-rule:nonzero;stroke:none"><path
         d="m 0,0 -10.694,-0.02 c 0,0 8.109,-3.032 5.985,-12.23 -2.124,-9.199 -5.798,-18.954 -4.715,-23.65 1.083,-4.697 3.734,-9.604 9.258,-9.262 L 0,-45.161 Z"
         id="path118"
         inkscape:connector-curvature="0"
         style="fill:#d94b20;fill-opacity:1" /></g><g
       id="g120"
       transform="translate(87.1594,94.1406)"
       style="fill:#a41b23;fill-opacity:1;fill-rule:nonzero;stroke:none"><path
         d="M 0,0 C -1.169,2.15 -1.233,4.374 -0.143,4.967 0.948,5.56 2.78,4.298 3.949,2.148 5.118,-0.002 5.182,-2.226 4.092,-2.819 3.001,-3.412 1.169,-2.15 0,0"
         id="path122"
         inkscape:connector-curvature="0"
         style="fill:#a41b23;fill-opacity:1" /></g><g
       id="g124"
       transform="translate(84.8887,105.9277)"
       style="fill:#a41b23;fill-opacity:1;fill-rule:nonzero;stroke:none"><path
         d="M 0,0 C 0.057,2.221 0.885,4.001 1.851,3.977 2.817,3.952 3.554,2.132 3.497,-0.089 3.44,-2.31 2.612,-4.09 1.646,-4.066 0.68,-4.041 -0.057,-2.221 0,0"
         id="path126"
         inkscape:connector-curvature="0"
         style="fill:#a41b23;fill-opacity:1" /></g><g
       id="g128"
       transform="translate(86.9364,115.9464)"
       style="fill:#a41b23;fill-opacity:1;fill-rule:nonzero;stroke:none"><path
         d="M 0,0 C 0.693,1.9 1.88,3.213 2.652,2.932 3.424,2.65 3.488,0.881 2.795,-1.019 2.102,-2.92 0.915,-4.232 0.143,-3.951 -0.629,-3.669 -0.693,-1.9 0,0"
         id="path130"
         inkscape:connector-curvature="0"
         style="fill:#a41b23;fill-opacity:1" /></g><g
       id="g132"
       transform="translate(127.7509,94.1406)"
       style="fill:#c02b24;fill-opacity:1;fill-rule:nonzero;stroke:none"><path
         d="M 0,0 C 1.169,2.15 1.233,4.374 0.143,4.967 -0.948,5.56 -2.78,4.298 -3.949,2.148 -5.118,-0.002 -5.182,-2.226 -4.092,-2.819 -3.001,-3.412 -1.169,-2.15 0,0"
         id="path134"
         inkscape:connector-curvature="0"
         style="fill:#c02b24;fill-opacity:1" /></g><g
       id="g136"
       transform="translate(130.0216,105.9277)"
       style="fill:#c02b24;fill-opacity:1;fill-rule:nonzero;stroke:none"><path
         d="M 0,0 C -0.057,2.221 -0.885,4.001 -1.851,3.977 -2.817,3.952 -3.554,2.132 -3.497,-0.089 -3.44,-2.31 -2.612,-4.09 -1.646,-4.066 -0.68,-4.041 0.057,-2.221 0,0"
         id="path138"
         inkscape:connector-curvature="0"
         style="fill:#c02b24;fill-opacity:1" /></g><g
       id="g140"
       transform="translate(127.974,115.9464)"
       style="fill:#c02b24;fill-opacity:1;fill-rule:nonzero;stroke:none"><path
         d="M 0,0 C -0.693,1.9 -1.88,3.213 -2.652,2.932 -3.424,2.65 -3.488,0.881 -2.795,-1.019 -2.102,-2.92 -0.915,-4.232 -0.143,-3.951 0.629,-3.669 0.693,-1.9 0,0"
         id="path142"
         inkscape:connector-curvature="0"
         style="fill:#c02b24;fill-opacity:1" /></g><g
       id="g144"
       transform="matrix(1,0,0,1.3624892,107.3807,176.2207)"
       style="fill:#f2f2f3;fill-opacity:1;fill-rule:nonzero;stroke:none"><path
         d="m 0,0 h -0.363 c -12.419,0 -20.604,-2.761 -20.604,-2.761 0,0 -5.176,-6.824 -3.83,-14.963 1.118,-6.764 4.451,-9.213 5.784,-11.357 6.083,-0.459 12.454,-0.704 19.013,-0.713 z"
         id="path146"
         inkscape:connector-curvature="0" /></g><g
       id="g148"
       transform="matrix(1,0,0,1.3624892,106.8441,176.2207)"
       style="fill:#ffffff;fill-opacity:1;fill-rule:nonzero;stroke:none"><path
         d="m 0,0 h 0.363 c 12.419,0 20.604,-2.761 20.604,-2.761 0,0 5.176,-6.824 3.83,-14.963 -1.118,-6.764 -4.451,-9.213 -5.784,-11.357 C 12.93,-29.54 6.559,-29.785 0,-29.794 Z"
         id="path150"
         inkscape:connector-curvature="0" /></g><g
       id="pin"
       transform="translate(94.6857,159.7935)"
       style="fill:#722f5c;fill-opacity:1;fill-rule:nonzero;stroke:none"><path
         d="m 0,0 c 0.707,0 1.404,-0.191 2.09,-0.571 0.685,-0.381 1.22,-0.93 1.603,-1.647 0.382,-0.717 0.574,-1.464 0.574,-2.241 0,-0.747 -0.188,-1.475 -0.563,-2.184 C 3.328,-7.353 2.797,-7.902 2.112,-8.29 1.426,-8.679 0.722,-8.873 0,-8.873 c -0.75,0 -1.465,0.194 -2.144,0.583 -0.679,0.388 -1.209,0.937 -1.592,1.647 -0.382,0.709 -0.574,1.437 -0.574,2.184 0,0.777 0.192,1.524 0.574,2.241 0.383,0.717 0.917,1.266 1.603,1.647 C -1.448,-0.191 -0.736,0 0,0"
         id="path154"
         inkscape:connector-curvature="0"
         style="fill:#722f5c;fill-opacity:1" /></g><path
       style="font-weight:bold;font-size:32px;line-height:1.25;font-family:Arial;-inkscape-font-specification:'Arial, Bold';fill:#722f5c;stroke-width:0.8"
       d="m 111.36783,-152.37019 v -4.04688 q 1.98437,-2.15625 4.625,-2.15625 0.98437,0 1.8125,0.20313 0.82812,0.1875 2.96875,1.0625 2.15625,0.85937 2.92187,0.85937 0.875,0 2.01563,-0.53125 1.15625,-0.54687 2.25,-1.71875 v 4.21875 q -0.71875,0.75 -2.01563,1.40625 -1.28125,0.65625 -2.65625,0.65625 -0.78125,0 -1.53125,-0.1875 -0.73437,-0.1875 -2.34375,-0.89062 -2.40625,-1.04688 -3.78125,-1.04688 -2.1875,0 -4.26562,2.17188 z"
       id="text1"
       transform="scale(1,-1)"
       aria-label="~" /></g></svg>
